<svg xmlns="http://www.w3.org/2000/svg" width="564" height="14" viewBox="0 0 564 14">
  <metadata><?xpacket begin="﻿" id="W5M0MpCehiHzreSzNTczkc9d"?>
<x:xmpmeta xmlns:x="adobe:ns:meta/" x:xmptk="Adobe XMP Core 5.6-c138 79.159824, 2016/09/14-01:09:01        ">
   <rdf:RDF xmlns:rdf="http://www.w3.org/1999/02/22-rdf-syntax-ns#">
      <rdf:Description rdf:about=""/>
   </rdf:RDF>
</x:xmpmeta>
                                                                                                    
                                                                                                    
                                                                                                    
                                                                                                    
                                                                                                    
                                                                                                    
                                                                                                    
                                                                                                    
                                                                                                    
                                                                                                    
                                                                                                    
                                                                                                    
                                                                                                    
                                                                                                    
                                                                                                    
                                                                                                    
                                                                                                    
                                                                                                    
                                                                                                    
                                                                                                    
                           
<?xpacket end="w"?></metadata>
<defs>
    <style>
      .cls-1 {
        fill: #fff;
        fill-rule: evenodd;
      }
    </style>
  </defs>
  <g id="画板_1" data-name="画板 1">
    <path id="形状_1_拷贝" data-name="形状 1 拷贝" class="cls-1" d="M0,3.81A10.316,10.316,0,0,1,7.171,1.188c10,0.226,10.083,9.7,19.047,10.722,8.385,0.887,11.2-6.6,17.1-9.549a11.534,11.534,0,0,1,8.385-.722c5.812,1.76,4.359,7.564,11.957,9.4a10.082,10.082,0,0,0,5.9-.15c5.987-2.06,6.25-7.94,11.624-9.624a12.929,12.929,0,0,1,7.09.075c5.742,1.835,2.136,6.827,10.171,9.549a9.98,9.98,0,0,0,7.108,0C110.6,8.9,111.192,3.549,116.321,1.7a11.12,11.12,0,0,1,7.353.075c5.129,1.835,2.048,6.241,9.226,8.888a10.889,10.889,0,0,0,6.337.376c5.812-1.323,7-6.9,11.449-8.812a12.9,12.9,0,0,1,8.98-.075c5.13,1.91,3.747,6.015,10.329,8.662a10.377,10.377,0,0,0,6.67.226c5.567-1.474,4.114-6.767,10.433-9.264a10.672,10.672,0,0,1,8.981.376c3.676,2.12,5.287,6.527,9.646,8.436a11.145,11.145,0,0,0,4.026.812c8.456,0.3,6.758-6.09,12.657-9.038a11.365,11.365,0,0,1,9.734.075c4.114,2.06,3.939,6.03,9.575,8.226a9.662,9.662,0,0,0,7.7,0c4.184-1.534,7.335-7.339,12.307-8.888a10.3,10.3,0,0,1,6.652.15C274.121,4.06,273,8.316,278.9,10.662a11.643,11.643,0,0,0,5.987.737c7.528-1.1,4.535-7.639,12.045-9.835a12.152,12.152,0,0,1,7.02.135c6.232,2.06,2.643,6.9,10.766,9.339a10.109,10.109,0,0,0,5.9,0c5.392-1.474,7.528-7.354,12.307-8.963a10.617,10.617,0,0,1,7.09-.15c4.8,1.624,7.44,7.414,12.482,9.113a10.413,10.413,0,0,0,5.987.286c5.217-1.4,8.718-8.075,12.57-9.685a10.974,10.974,0,0,1,8.367.06c3.852,1.7,5.988,7.354,11.8,9.188a10.3,10.3,0,0,0,8.8-1.1,23.287,23.287,0,0,0,4.359-4.707,10.261,10.261,0,0,1,12.57-2.932c4.6,2.2,4.008,6.978,10.853,8.888a11.3,11.3,0,0,0,6.408-.376c5.216-1.609,3.5-5.8,9.488-8.361a10.787,10.787,0,0,1,7.615-.376c4.447,1.4,5.637,5.88,10.591,8.587a5.689,5.689,0,0,0,2.994.887,11.089,11.089,0,0,0,4.709-.226c6.145-1.759,4.516-6.827,11.186-9.4a11.1,11.1,0,0,1,5.567-.436c7.6,1.474,3.922,6.617,11.362,9.324a9.649,9.649,0,0,0,8.385-.361c3.676-2.211,3.676-6.9,9.226-8.737a11.008,11.008,0,0,1,7.352.135c5.217,1.985,5.13,6.617,10.259,8.963a11.266,11.266,0,0,0,8.455.226c5.392-1.835,4.272-7.053,10.854-9.188a10.812,10.812,0,0,1,7.44.451A8.975,8.975,0,0,1,564,6.041V14H0V3.81Z"/>
  </g>
</svg>
